HIERARCHY
ROOT Hips
{
 OFFSET 0.000000 0.000000 0.000000
 CHANNELS 6 Xposition Yposition Zposition Yrotation Xrotation Zrotation
 JOINT Chest
 {
  OFFSET 0.000000 10.265206 0.006595
  CHANNELS 3 Yrotation Xrotation Zrotation
  JOINT Chest2
  {
   OFFSET 0.000000 11.389044 -0.011980
   CHANNELS 3 Yrotation Xrotation Zrotation
   JOINT Chest3
   {
    OFFSET 0.000000 10.290982 0.000000
    CHANNELS 3 Yrotation Xrotation Zrotation
    JOINT Chest4
    {
     OFFSET 0.000000 10.290982 0.000000
     CHANNELS 3 Yrotation Xrotation Zrotation
     JOINT Neck
     {
      OFFSET 0.000000 14.367993 0.000000
      CHANNELS 3 Yrotation Xrotation Zrotation
      JOINT Head
      {
       OFFSET 0.000000 9.574020 -0.028490
       CHANNELS 3 Yrotation Xrotation Zrotation
       End Site
       {
        OFFSET 0.000000 18.400023 -0.014881
       }
      }
     }
     JOINT RightCollar
     {
      OFFSET -3.015571 8.009391 0.000000
      CHANNELS 3 Yrotation Xrotation Zrotation
      JOINT RightShoulder
      {
       OFFSET -13.867120 0.000000 0.000000
       CHANNELS 3 Yrotation Xrotation Zrotation
       JOINT RightElbow
       {
        OFFSET -29.171974 0.000000 0.000000
        CHANNELS 3 Yrotation Xrotation Zrotation
        JOINT RightWrist
        {
         OFFSET -24.013854 0.000000 0.006497
         CHANNELS 3 Yrotation Xrotation Zrotation
         End Site
         {
          OFFSET -18.051397 0.000000 0.000000
         }
        }
       }
      }
     }
     JOINT LeftCollar
     {
      OFFSET 3.015571 8.009391 0.000000
      CHANNELS 3 Yrotation Xrotation Zrotation
      JOINT LeftShoulder
      {
       OFFSET 13.867120 0.000000 0.000000
       CHANNELS 3 Yrotation Xrotation Zrotation
       JOINT LeftElbow
       {
        OFFSET 29.171974 0.000000 0.000000
        CHANNELS 3 Yrotation Xrotation Zrotation
        JOINT LeftWrist
        {
         OFFSET 24.013854 0.000000 0.006497
         CHANNELS 3 Yrotation Xrotation Zrotation
         End Site
         {
          OFFSET 18.051397 0.000000 0.000000
         }
        }
       }
      }
     }
    }
   }
  }
 }
 JOINT RightHip
 {
  OFFSET -8.283980 -0.032318 -0.003298
  CHANNELS 3 Yrotation Xrotation Zrotation
  JOINT RightKnee
  {
   OFFSET 0.000000 -43.567000 0.003120
   CHANNELS 3 Yrotation Xrotation Zrotation
   JOINT RightAnkle
   {
    OFFSET 0.000000 -42.556413 0.005276
    CHANNELS 3 Yrotation Xrotation Zrotation
    JOINT RightToe
    {
     OFFSET 0.000000 -7.926623 17.954935
     CHANNELS 3 Yrotation Xrotation Zrotation
     End Site
     {
      OFFSET 0.000000 -1.555762 6.841994
     }
    }
   }
  }
 }
 JOINT LeftHip
 {
  OFFSET 8.283980 -0.032318 -0.003298
  CHANNELS 3 Yrotation Xrotation Zrotation
  JOINT LeftKnee
  {
   OFFSET 0.000000 -43.567000 0.003120
   CHANNELS 3 Yrotation Xrotation Zrotation
   JOINT LeftAnkle
   {
    OFFSET 0.000000 -42.556413 0.005276
    CHANNELS 3 Yrotation Xrotation Zrotation
    JOINT LeftToe
    {
     OFFSET 0.000000 -7.926623 17.954935
     CHANNELS 3 Yrotation Xrotation Zrotation
     End Site
     {
      OFFSET 0.000000 -1.555762 6.841994
     }
    }
   }
  }
 }
}
MOTION
Frames: 7
Frame Time: 0.033333
-20.017122 95.591396 21.875511 -95.575599 -2.108863 0.896597 0.219425 5.199136 0.623054 0.101347 3.256210 0.389273 0.079288 2.605024 0.310887 0.058130 1.953809 0.232787 -0.147862 18.636244 -2.381772 0.391723 -6.336082 -2.486598 1.328782 -0.040299 9.569713 -4.451074 -6.049820 69.678604 4.726096 21.173932 -9.859429 4.491539 8.853180 -4.258846 0.075253 2.086939 -8.257507 -9.454342 -6.827364 -72.822889 -12.156650 18.041349 7.363829 -2.504382 5.526440 6.482195 -18.463863 6.192610 0.140394 -12.074653 -2.615250 0.520054 -0.722488 -4.979529 -2.770515 -0.078973 0.203516 -0.036671 14.194517 -13.169570 13.359997 10.665762 19.010494 -0.029213 -10.545873 3.126137 -4.134402 0.182556 -0.974652 0.407759
-19.280023 95.930451 22.085746 -94.337974 -1.256271 1.976696 0.159044 5.226823 0.446079 0.070202 3.282904 0.353383 0.054527 2.626359 0.282319 0.039674 1.969795 0.211468 -1.161525 18.430402 -2.366318 -0.683744 -6.564864 -2.234896 1.520967 -0.245410 9.451291 -3.903854 -6.141140 69.118616 4.523149 20.668270 -10.077297 4.264817 8.972820 -4.061562 0.095331 2.080073 -8.318200 -9.173833 -6.647687 -73.420919 -11.966717 18.512170 7.371558 -3.032241 5.622179 7.524076 -18.848899 4.753939 -0.532235 -12.564844 -2.916918 0.605737 -0.960281 -4.246344 -2.971827 -0.012030 -0.037929 -0.019173 17.421475 -13.551042 11.646780 9.961014 16.536897 -1.099584 -10.457242 6.162780 -4.093988 0.098774 -1.049881 0.847572
-18.469986 96.148442 22.235094 -93.432216 -0.554197 2.870188 0.112952 5.251071 0.398463 0.049840 3.306957 0.318803 0.038389 2.645589 0.254753 0.027683 1.984208 0.190864 -1.800848 18.213225 -2.259333 -1.383706 -6.800367 -1.973819 1.787180 -0.456190 9.308711 -3.091326 -6.244061 68.558847 4.601790 19.707840 -10.302873 4.064312 9.063875 -3.898466 0.154694 2.078223 -8.295485 -8.995380 -6.515029 -74.085635 -11.270919 18.779131 7.591218 -3.404339 5.788751 8.017228 -19.037852 3.351118 -1.018778 -13.074920 -2.965075 0.648125 -1.016359 -3.774809 -3.208893 0.029575 -0.116856 -0.007851 19.169777 -13.068842 10.241727 9.065724 14.081876 -1.717697 -9.755234 8.488066 -5.030658 0.102797 -1.094731 1.276168
-17.656592 96.305830 22.326057 -92.862203 0.033891 3.640462 0.028382 5.168773 0.318373 0.045973 3.294741 0.284905 0.035458 2.635812 0.227660 0.025606 1.976872 0.170562 -2.231475 18.094629 -2.136655 -1.867323 -6.925825 -1.745263 1.949552 -0.605429 9.234670 -2.388425 -6.367705 68.077702 5.236294 18.546897 -10.373719 3.886082 9.010558 -3.950721 0.214810 2.031676 -8.284376 -8.766817 -6.250547 -74.609532 -10.096940 18.689979 7.889994 -3.562050 5.683448 8.011172 -19.424221 2.060514 -1.412343 -13.248436 -2.948828 0.676376 -0.899768 -3.447129 -3.467128 0.053120 -0.080035 0.002006 19.529846 -11.787751 9.575916 8.775407 12.039158 -2.067900 -10.150982 8.856907 -6.967881 0.046654 -0.608792 1.680303
-16.951582 96.384100 22.287342 -92.611801 0.304738 4.009117 0.031012 5.153560 0.431429 0.045496 3.266517 0.258324 0.035209 2.613231 0.206404 0.025519 1.959935 0.154626 -2.483195 18.068167 -2.044458 -2.155436 -6.951022 -1.590468 1.989004 -0.732827 9.329419 -1.916681 -6.709088 67.563119 6.280953 17.912412 -10.167066 3.820171 8.715968 -4.229828 0.267219 2.055992 -8.287616 -8.418043 -6.219892 -74.820211 -8.395642 18.673060 8.093928 -3.732237 5.678030 7.723898 -19.859385 1.319090 -1.518768 -12.971963 -3.003698 0.762133 -0.869311 -3.170788 -3.761337 0.055058 -0.026720 -0.005389 18.300883 -10.621200 10.041711 7.320904 12.113482 -2.517904 -9.312454 6.645107 -8.882523 -0.230493 -0.092782 1.595430
-16.394500 96.421196 22.208366 -92.716437 0.360077 4.251349 -0.002925 5.125750 0.529213 0.016304 3.221530 0.238728 0.011965 2.577230 0.190867 0.008167 1.932926 0.143076 -2.544138 18.133666 -1.981120 -2.235163 -6.878592 -1.509973 1.953366 -0.840019 9.463688 -2.040438 -7.317091 67.185196 7.789035 17.929112 -9.608842 3.805478 8.256513 -4.640998 0.291425 2.062345 -8.270885 -7.859430 -6.251334 -75.014329 -6.260026 18.791011 8.436121 -3.696936 5.756170 7.145410 -20.254178 0.920393 -1.605508 -12.703192 -3.069331 0.893502 -0.586854 -2.951073 -4.029660 0.037924 0.030326 -0.023125 16.905630 -9.394947 10.158554 6.019223 13.394638 -1.892323 -8.418854 2.856183 -11.288455 -0.120379 0.375187 1.652853
-15.928624 96.479035 22.139318 -92.983273 0.285416 4.623232 -0.113259 5.013049 0.437521 -0.035431 3.153659 0.236162 -0.029379 2.522916 0.189046 -0.022812 1.892178 0.141883 -2.516477 18.226713 -1.988633 -2.204848 -6.776757 -1.524802 2.094484 -0.853709 9.466181 -2.665007 -7.980283 67.096992 9.817255 18.334530 -8.790629 3.827095 7.870747 -4.962233 0.422616 2.047428 -8.329839 -7.437096 -6.200561 -75.195349 -3.970286 18.985899 8.916085 -3.544854 5.886880 6.315979 -20.450866 0.658657 -1.858821 -12.328182 -3.173795 0.995431 -0.498398 -2.719765 -4.266688 0.031482 0.067674 -0.032967 15.153598 -8.050554 10.021313 6.251590 15.668672 -1.380867 -7.706205 -0.857925 -11.527962 -0.097069 0.329080 0.808937
